<svg width="1000" height="304" viewBox="0 0 1000 304" fill="none" xmlns="http://www.w3.org/2000/svg">
<path d="M0.5 215.011V4.94336H37.401V215.011H0.5Z" fill="white"/>
<path d="M131.859 62.6149C84.5476 62.6149 51.8071 98.9916 51.8071 140.628C51.8071 187.098 87.425 219.11 132.227 219.11C174.747 219.11 211.644 187.686 211.644 140.528C211.644 100.872 181.07 62.6149 131.859 62.6149ZM131.425 98.2123C156.185 98.2123 174.409 117.485 174.409 140.762C174.409 165.442 154.316 183.445 132.093 183.445C105.835 183.445 89.3097 162.633 89.3097 140.829C89.3097 116.929 107.967 98.2123 131.425 98.2123Z" fill="white"/>
<path d="M304.358 62.6149C257.046 62.6149 224.306 98.9916 224.306 140.628C224.306 187.098 259.924 219.11 304.726 219.11C347.246 219.11 384.143 187.686 384.143 140.528C384.143 112.757 372.117 100.436 372.117 100.436L382.345 96.9283V66.9797H329.935C329.935 66.9797 318.573 62.6149 304.358 62.6149ZM303.924 98.2123C328.683 98.2123 346.908 117.485 346.908 140.762C346.908 165.442 326.815 183.445 304.592 183.445C278.334 183.445 261.809 162.633 261.809 140.829C261.809 116.929 280.466 98.2123 303.924 98.2123Z" fill="white"/>
<path d="M346.647 225.28C346.647 249.959 326.554 268.097 304.331 268.097C278.073 268.097 261.481 247.084 261.481 225.28H224.045C224.045 271.749 259.663 303.761 304.465 303.761C346.985 303.761 383.882 272.438 383.882 225.28H346.647Z" fill="white"/>
<path d="M398.923 215.011V66.9797H435.824V215.011H398.923Z" fill="white"/>
<path d="M471.656 215.011V100.137H451.868V66.9797H471.656V21.5221H508.557V66.9797H528.879V100.137H508.557V215.011H471.656Z" fill="white"/>
<path d="M441.733 24.9358C441.733 38.4313 430.792 49.3715 417.297 49.3715C403.801 49.3715 392.861 38.4313 392.861 24.9358C392.861 11.4404 403.801 0.500122 417.297 0.500122C430.792 0.500122 441.733 11.4404 441.733 24.9358Z" fill="white"/>
<path d="M611.839 62.5145C564.303 62.5145 533.659 98.9103 533.659 141.965C533.659 186.458 564.405 219.21 612.608 219.21C657.573 219.21 679.692 191.133 679.692 191.133L655.024 166.432C655.024 166.432 636.399 186.521 613.076 186.521C593.634 186.521 578.089 175.669 572.665 155.77H687.647V145.609C687.647 105.064 664.18 62.5145 611.839 62.5145ZM610.669 95.0034C627.668 95.0034 645.053 104.098 648.941 125.821H571.663C574.724 110.551 588.082 95.0034 610.669 95.0034Z" fill="white"/>
<path d="M779.947 219.229C732.277 219.229 699.795 182.922 699.795 140.113C699.795 95.9339 736.505 62.4867 779.794 62.4867C821.642 62.4867 843.063 92.0288 843.063 92.0288L817.321 117.654C817.321 117.654 802.41 98.3878 779.619 98.3878C754.36 98.3878 737.088 117.711 737.088 140.679C737.088 164.932 755.461 183.539 779.335 183.539C802.493 183.539 817.285 164.304 817.285 164.304L843.284 189.915C843.284 189.915 822.072 219.229 779.947 219.229Z" fill="white"/>
<path d="M856.709 215.118V4.40857H893.61V81.8243C893.61 81.8243 907.74 62.4867 938.475 62.4867C977.115 62.4867 999.5 91.21 999.5 127.947V215.118H962.599V133.524C962.599 108.844 947.233 98.6042 930.211 98.6042C910.817 98.6042 893.61 109.641 893.61 135.434V215.118H856.709Z" fill="white"/>
</svg>
